<?xml  version="1.0" encoding="UTF-8"?>
<!DOCTYPE svg PUBLIC "-//W3C//DTD SVG 1.0//EN" "http://www.w3.org/TR/2001/REC-SVG-20010904/DTD/svg10.dtd" >
<svg xmlns="http://www.w3.org/2000/svg" >
<metadata>
<version>1.0</version>
<id><![CDATA[Soho Gothic W01 Thin]]></id>
<vendor>Monotype Imaging Inc.</vendor>
<credits>
<name>Fonts.com WebFonts</name>
<URL>http://webfonts.fonts.com</URL>
<role>Home of the Web fonts</role>
</credits>
<license>
<URL>http://webfonts.fonts.com/Legal</URL>
</license>
<copyright><![CDATA[Copyright (c) 2007 Monotype Imaging Inc. Soho is designed by Sebastian Lester. All rights reserved.]]></copyright>
<trademark><![CDATA[Soho is a trademark of Monotype Imaging, Inc and may be registered in certain jurisdictions.]]></trademark>
<licensee>
<name></name>
</licensee>
</metadata>
<defs >
<font horiz-adv-x="505" id="2cc29bea-7d6f-4b9a-a764-941929615d96">
<font-face font-family="" panose-1="2 11 2 3 3 5 4 2 2 4" ascent="985" descent="-232" units-per-em="1000" alphabetic="0">
</font-face>
<missing-glyph horiz-adv-x="0" />

<glyph unicode="&#xA;" />
<glyph unicode="&#xD;" horiz-adv-x="0" />
<glyph unicode=" " horiz-adv-x="220" />
<glyph unicode="!" horiz-adv-x="191" d="M87 0V111H104V0H87ZM104 188H87V770H104V188Z"  />
<glyph unicode="&quot;" horiz-adv-x="267" d="M52 759H70L37 519H20L52 759ZM214 519H197L229 759H247L214 519Z"  />
<glyph unicode="#" horiz-adv-x="705" d="M469 221L445 0H428L452 221H221L197 0H179L203 221H82V238H206L235 501H82V518H236L261 743H279L254 518H485L510 743H527L502 518H642V501H501L472 238H642V221H469ZM252 501L223 238H454L484 501H252Z"  />
<glyph unicode="$" horiz-adv-x="537" d="M264 -12Q201 -12 152 -8T70 1V16Q81 14 101 12T147 9T203 6T263 4Q310 4 349 12T415 40T458 92T474 172Q474 211 463 238T429 287T369 329T282 377L233 403Q195 423 163 442T106 484T69 535T55 600Q55 681 111 716T264 754V855H281V754Q334 754 382 750T469 741V726Q455 728 434 730T386 734T332 737T277 739Q231 739 193 732T128 709T86 666T71 600Q71 566 83 541T118 495T172 456T242 417L289 392Q340 365 378 343T441 297T478 244T491 173Q491 79 437 35T281 -12V-117H264V-12Z"  />
<glyph unicode="%" horiz-adv-x="909" d="M858 180Q858 127 847 91T817 31T771 -2T712 -13Q680 -13 653 -3T607 31T576 90T565 180V238Q565 290 576 327T606 387T653 420T712 431Q744 431 770 421T816 387T847 327T858 238V180ZM841 238Q841 289 831 323T804 377T764 406T712 415Q684 415 660 407T619 378T592 323T582 238V179Q582 128 592 95T619 41T660 12T712 3Q740 3 763 11T804 40T831 94T841 179V238ZM234 0H214L688 743H708L234 0ZM354 502Q354 449 343 413T313 353T266 320T207 309Q175 309 148 319T102 353T72 413T61 502V561Q61 613 71 649T101 709T148 743T207 754Q239 754 266 744T312 710T343 650T354 561V502ZM337 561Q337 612 327 646T300 700T259 729T207 738Q179 738 156 730T115 701T87 646T77 561V502Q77 451 87 417T114 363T155 334T207 325Q235 325 259 333T300 362T327 417T337 502V561Z"  />
<glyph unicode="&amp;" horiz-adv-x="706" d="M589 0L510 79Q478 38 424 13T288 -12Q239 -12 198 -2T126 32T78 91T60 181Q60 212 67 240T91 292T136 339T208 382L203 387Q176 414 154 438T115 488T91 541T82 604Q82 648 97 677T139 723T203 747T286 754Q348 754 399 751T482 742V727Q450 731 399 735T286 739Q249 739 215 734T155 715T114 673T98 601Q98 568 106 542T129 493T167 446T216 395L509 101Q532 134 544 173T562 253T569 333T570 407H492V422H661V407H585Q585 372 584 331T576 247T557 165T519 91L606 4V0H589ZM219 371Q178 352 151 332T107 288T83 237T76 178Q76 131 91 98T134 44T201 13T288 3Q366 3 417 26T500 89L219 371Z"  />
<glyph unicode="&apos;" horiz-adv-x="90" d="M37 519H20L52 759H70L37 519Z"  />
<glyph unicode="(" horiz-adv-x="280" d="M226 -207Q196 -174 166 -127T112 -21T73 109T58 264V271Q58 354 73 425T112 556T166 662T226 743H243Q211 705 181 658T128 552T90 423T75 271V264Q75 182 89 113T127 -15T181 -122T243 -207H226Z"  />
<glyph unicode=")" horiz-adv-x="280" d="M221 264Q221 181 206 110T167 -21T114 -127T54 -207H36Q68 -170 98 -122T152 -16T190 112T205 264V271Q205 353 191 423T153 551T99 657T36 743H54Q84 709 113 662T167 556T206 426T221 271V264H221Z"  />
<glyph unicode="*" horiz-adv-x="480" d="M305 593Q294 588 280 585T255 577L287 536L361 435L346 424L273 525Q266 535 258 546T242 569Q235 559 228 547T213 525L139 424L125 434L198 535L228 577Q217 579 204 583T179 592L61 631L66 647L184 610Q195 605 209 601T234 592Q234 603 234 617T233 642V770H251V642Q251 631 251 617T250 592L299 610L418 648L424 631L305 593Z"  />
<glyph unicode="+" horiz-adv-x="683" d="M351 385V144H334V385H92V402H334V643H351V402H591V385H351Z"  />
<glyph unicode="&#x2c;" horiz-adv-x="174" d="M59 -82H42L102 132H120L59 -82Z"  />
<glyph unicode="-" horiz-adv-x="392" d="M77 277V294H317V277H77Z"  />
<glyph unicode="." horiz-adv-x="136" d="M60 0V132H76V0H60Z"  />
<glyph unicode="/" horiz-adv-x="392" d="M56 0H39L328 743H345L56 0Z"  />
<glyph unicode="0" horiz-adv-x="606" d="M540 340Q540 241 523 174T475 66T400 6T303 -12Q249 -12 206 6T131 65T83 174T66 340V402Q66 501 83 568T131 676T205 736T303 754Q356 754 400 736T475 677T523 568T540 402V340ZM523 402Q523 499 507 563T461 667T391 722T303 738Q255 738 215 722T146 667T100 564T83 402V340Q83 243 99 179T145 75T215 20T303 3Q350 3 390 19T460 75T506 178T523 340V402Z"  />
<glyph unicode="1" horiz-adv-x="375" d="M52 0V15H183V728L51 677V695L183 746H200V15H331V0H52Z"  />
<glyph unicode="2" horiz-adv-x="572" d="M70 0V29Q70 104 81 154T119 240T190 307T302 376Q359 407 395 432T452 481T481 531T489 594Q489 672 433 705T262 738Q239 738 213 737T161 733T113 727T78 721V737Q86 738 105 741T149 747T204 752T262 754Q389 754 447 715T506 594Q506 557 498 529T468 474T408 422T311 363Q245 326 202 297T133 232T97 149T87 29V16H499V0H70Z"  />
<glyph unicode="3" horiz-adv-x="557" d="M490 187Q490 142 478 106T438 43T363 2T248 -12Q223 -12 196 -11T143 -9T97 -6T66 -2V13Q79 11 100 10T145 7T196 4T248 3Q314 3 357 16T427 53T463 111T474 187V222Q474 247 470 275T449 327T400 366T314 382H86V398H314Q368 398 399 412T447 449T469 500T474 557V573Q474 614 464 645T427 696T358 727T248 738Q223 738 197 737T145 735T100 731T66 728V743Q76 745 96 747T142 750T195 753T248 754Q317 754 363 743T438 708T479 651T491 573V557Q491 528 486 501T468 451T431 412T370 389Q409 381 433 364T469 324T486 274T490 222V187H490Z"  />
<glyph unicode="4" horiz-adv-x="609" d="M434 228V0H418V228H41V244L413 746H434V244H565V228H434ZM418 727L61 244H418V727Z"  />
<glyph unicode="5" horiz-adv-x="572" d="M506 204Q506 153 495 113T455 46T380 5T262 -10Q197 -10 143 -5T66 6V21Q96 16 146 11T262 6Q331 6 375 19T444 57T479 120T489 204V226Q489 283 472 318T423 374T344 402T240 410H84L115 743H473V727H131L103 426H240Q302 426 351 417T434 386T487 325T506 226V204H506Z"  />
<glyph unicode="6" horiz-adv-x="615" d="M549 220Q549 160 532 117T483 45T407 2T308 -12Q253 -12 208 5T132 58T83 151T66 289V479Q66 545 78 596T119 682T198 735T324 754Q351 754 382 752T441 748T491 742T523 737V723Q508 725 486 728T436 733T380 737T324 739Q253 739 207 722T133 673T94 593T83 484V412Q143 428 203 435T310 443Q353 443 396 435T473 404T528 344T549 246V220ZM532 246Q532 303 513 338T462 393T390 420T310 427Q262 427 203 421T83 397V286Q83 209 99 156T146 68T217 19T308 4Q359 4 400 16T471 55T516 123T532 220V246Z"  />
<glyph unicode="7" horiz-adv-x="535" d="M157 0H139L476 727H58V743H494V727L157 0Z"  />
<glyph unicode="8" horiz-adv-x="624" d="M558 205Q558 148 546 107T505 40T430 1T316 -12H308Q240 -12 194 1T120 41T79 109T66 207V214Q66 284 92 330T184 389Q151 395 129 411T93 449T74 500T68 558V566Q68 614 80 649T121 707T195 741T308 753H315Q382 753 428 742T502 707T543 649T556 566V558Q556 527 550 500T531 450T495 411T439 389Q505 377 531 332T558 216V205ZM541 216Q541 249 535 279T512 331T466 367T392 381H232Q186 381 157 368T112 331T89 277T82 214V207Q82 151 94 113T134 50T204 14T308 3H316Q376 3 419 13T489 48T528 110T541 205V216ZM539 566Q539 657 488 697T315 738H308Q247 738 205 729T135 698T96 645T84 566V558Q84 529 90 501T112 449T157 412T232 397H392Q437 397 466 411T511 448T533 499T539 558V566Z"  />
<glyph unicode="9" horiz-adv-x="615" d="M549 262Q549 196 537 145T496 59T416 6T290 -13Q263 -13 232 -11T174 -7T124 -1T92 4V19Q107 17 129 15T179 10T234 5T290 3Q361 3 407 20T482 69T521 149T532 257V330Q472 313 412 306T304 299Q260 299 218 307T142 337T87 397T66 496V522Q66 581 83 625T132 697T208 740T307 754Q362 754 406 737T482 684T531 591T549 453V262ZM532 456Q532 532 516 586T469 673T398 722T306 738Q255 738 214 726T143 687T98 619T82 522V495Q82 438 101 403T152 349T223 322T304 315Q352 315 411 321T532 345V456Z"  />
<glyph unicode=":" horiz-adv-x="135" d="M64 0V132H81V0H64ZM64 407V539H81V407H64Z"  />
<glyph unicode=";" horiz-adv-x="172" d="M50 -82H32L92 132H111L50 -82ZM95 406V539H111V406H95Z"  />
<glyph unicode="&lt;" horiz-adv-x="683" d="M467 138L189 391L467 642H493L216 391L493 138H467Z"  />
<glyph unicode="=" horiz-adv-x="683" d="M565 269H118V285H565V269ZM118 502V518H565V502H118Z"  />
<glyph unicode="&gt;" horiz-adv-x="683" d="M214 138H190L467 391L190 642H214L492 391L214 138Z"  />
<glyph unicode="?" horiz-adv-x="414" d="M132 0V111H149V0H132ZM363 616Q363 588 359 565T344 520T313 475T262 421Q224 385 202 360T167 314T152 272T148 222V191H132V222Q132 250 135 272T151 318T187 368T251 432Q281 460 300 482T329 525T343 568T347 619Q347 662 335 689T299 732T245 754T175 760Q149 760 111 757T35 747V763Q71 770 109 773T175 776Q213 776 247 770T307 745T348 696T363 616Z"  />
<glyph unicode="@" horiz-adv-x="800" d="M756 395Q756 333 742 274T689 169T586 95T418 66Q322 66 279 102T236 226Q236 297 250 344T291 420T355 461T436 473Q455 473 484 471T548 460L508 89Q575 101 620 130T691 200T729 291T740 395Q740 446 724 489T672 564T582 614T450 632Q352 632 282 603T167 519T101 386T80 207Q80 125 103 68T169 -25T268 -77T394 -93Q432 -93 469 -90T539 -81V-96Q506 -102 468 -105T391 -109Q319 -109 259 -92T156 -36T88 63T64 207Q64 303 84 383T149 523T268 615T450 648Q531 648 589 629T684 575T738 495T756 395ZM530 448Q513 451 486 454T436 458Q396 458 363 448T305 411T266 340T252 225Q252 147 291 115T419 82Q436 82 453 83T490 86L530 448Z"  />
<glyph unicode="A" horiz-adv-x="602" d="M563 0L457 302H144L38 0H20L289 744H313L582 0H563ZM338 630L302 731H300Q292 705 283 681T264 630L150 318H451L338 630Z"  />
<glyph unicode="B" horiz-adv-x="595" d="M540 189Q540 88 477 38T269 -12Q232 -12 205 -11T157 -8T119 -4T85 0V743Q99 745 147 748T265 752Q338 752 389 742T472 710T520 654T535 570V561Q535 535 529 508T507 458T460 416T382 391Q430 383 460 365T508 323T533 268T540 208V189ZM523 208Q523 239 516 270T487 327T422 367T308 383H101V14Q132 10 171 7T269 3Q403 3 463 47T523 189V208ZM519 570Q519 616 505 648T460 700T381 728T265 737Q216 737 176 735T101 729V399H308Q379 399 421 414T484 454T512 506T519 561V570Z"  />
<glyph unicode="C" horiz-adv-x="535" d="M505 1Q494 -1 449 -6T332 -12Q188 -12 122 79T55 367V376Q55 572 121 663T332 754Q397 754 441 749T505 741V726Q482 729 438 733T332 738Q264 738 215 717T134 652T87 540T71 376V367Q71 271 86 203T134 90T215 25T332 4Q398 4 438 8T505 17V1H505Z"  />
<glyph unicode="D" horiz-adv-x="629" d="M574 360Q574 259 556 189T499 74T404 9T270 -12Q208 -12 165 -8T85 0V744Q111 746 130 747T168 750T211 752T270 753Q347 753 404 733T499 668T555 553T574 382V360ZM558 382Q558 481 539 549T484 659T394 719T270 737Q211 737 173 735T101 729V14Q133 10 175 7T270 4Q340 4 393 22T483 83T539 193T558 360V382Z"  />
<glyph unicode="E" horiz-adv-x="544" d="M85 0V743H489V727H101V400H460V384H101V15H489V0H85Z"  />
<glyph unicode="F" horiz-adv-x="534" d="M101 727V400H460V384H101V0H85V743H489V727H101Z"  />
<glyph unicode="G" horiz-adv-x="589" d="M524 0Q483 -6 443 -9T352 -12Q281 -12 226 9T132 75T75 192T55 365V377Q55 481 74 553T130 669T220 734T343 754Q399 754 445 751T524 742V726Q493 730 445 734T343 738Q278 738 227 719T142 658T89 547T71 378V365Q71 267 90 198T145 86T234 24T352 4Q401 4 440 6T508 13V378H524V0H524Z"  />
<glyph unicode="H" horiz-adv-x="671" d="M570 0V393H101V0H85V743H101V409H570V743H586V0H570Z"  />
<glyph unicode="I" horiz-adv-x="197" d="M90 0V743H107V0H90Z"  />
<glyph unicode="J" horiz-adv-x="197" d="M107 -49Q107 -81 104 -108T90 -156T56 -188T-5 -200Q-19 -200 -34 -199T-64 -196V-182Q-47 -183 -33 -183T-5 -184Q28 -184 47 -175T75 -147T87 -104T90 -49V743H107V-49H107Z"  />
<glyph unicode="K" horiz-adv-x="535" d="M495 0L106 376V0H90V743H106V382L492 743H517L128 379L520 0H495Z"  />
<glyph unicode="L" horiz-adv-x="508" d="M85 0V743H101V15H483V0H85Z"  />
<glyph unicode="M" horiz-adv-x="748" d="M647 0V652V722H646L603 654L386 312H362L145 654L102 722H101V652V0H85V743H108L331 390L373 324H375L417 390L640 743H663V0H647Z"  />
<glyph unicode="N" horiz-adv-x="664" d="M557 -3L140 663L103 722H102V649V0H85V743H107L530 68L562 17H563V79V743H579V-3H557Z"  />
<glyph unicode="O" horiz-adv-x="646" d="M591 361Q591 256 572 185T518 70T434 7T323 -12Q262 -12 213 7T128 69T74 184T55 361V382Q55 488 74 559T128 673T212 735T323 754Q384 754 433 736T518 674T572 559T591 382V361ZM575 382Q575 487 556 556T504 665T424 722T323 738Q269 738 223 722T143 666T90 556T71 382V361Q71 256 90 187T143 78T223 21T323 4Q377 4 423 20T503 77T556 187T575 361V382Z"  />
<glyph unicode="P" horiz-adv-x="560" d="M510 538Q510 436 450 382T250 327Q219 327 181 328T97 331V0H80V745Q124 749 163 751T255 754Q325 754 373 742T452 705T496 642T510 552V538ZM494 552Q494 651 439 694T255 738Q203 738 163 735T97 730V346Q142 344 180 343T250 342Q378 342 436 391T494 538V552Z"  />
<glyph unicode="Q" horiz-adv-x="646" d="M591 361Q591 257 573 187T521 73T439 9T332 -12V-76Q332 -102 334 -122T346 -156T374 -177T422 -184H506V-197Q490 -198 464 -199T422 -200Q386 -200 365 -191T333 -166T318 -127T315 -76V-12Q256 -11 208 9T126 72T74 186T55 361V382Q55 488 74 559T128 673T212 735T323 754Q384 754 433 736T518 674T572 559T591 382V361ZM575 382Q575 487 556 556T504 665T424 722T323 738Q269 738 223 722T143 666T90 556T71 382V361Q71 256 90 187T143 78T223 21T323 4Q377 4 423 20T503 77T556 187T575 361V382Z"  />
<glyph unicode="R" horiz-adv-x="591" d="M532 0L326 330Q306 328 288 328T257 327Q237 327 215 327T172 327T133 328T102 330V0H85V744Q107 746 127 748T167 751T209 753T257 754Q392 754 453 704T515 551V539Q515 447 475 398T344 332L551 0H532ZM499 551Q499 650 440 694T257 738Q224 738 181 736T102 729V346Q134 344 176 344T257 343Q385 343 442 391T499 539V551Z"  />
<glyph unicode="S" horiz-adv-x="546" d="M491 173Q491 76 433 32T263 -12Q202 -12 153 -8T70 1V16Q81 14 101 12T147 9T203 6T263 4Q310 4 349 12T415 40T458 92T474 172Q474 211 463 238T429 287T369 329T282 377L233 403Q195 423 163 442T106 484T69 535T55 600Q55 642 70 671T115 719T185 745T277 754Q331 754 381 750T469 741V726Q455 728 434 730T386 734T332 737T277 739Q231 739 193 732T128 709T86 666T71 600Q71 566 83 541T118 495T172 456T242 417L289 392Q340 365 378 343T441 297T478 244T491 173Z"  />
<glyph unicode="T" horiz-adv-x="604" d="M310 727V0H293V727H30V743H574V727H310Z"  />
<glyph unicode="U" horiz-adv-x="650" d="M570 339Q570 253 558 188T518 79T442 13T325 -9Q255 -9 208 13T133 79T92 188T80 339V743H96V339Q96 254 107 192T145 88T216 27T325 7Q390 7 434 27T504 88T542 191T554 339V743H570V339H570Z"  />
<glyph unicode="V" horiz-adv-x="624" d="M324 0H300L30 743H48L292 69L312 14H313L333 70L576 743H594L324 0Z"  />
<glyph unicode="W" horiz-adv-x="852" d="M636 0H610L444 556L427 612H425L408 556L242 0H216L45 743H62L216 72L229 14H230L247 72L411 627H441L605 71L622 14H623L636 71L789 743H807L636 0Z"  />
<glyph unicode="X" horiz-adv-x="617" d="M560 0L308 360L56 0H35L298 374L39 743H62L309 390L556 743H577L319 375L582 0H560Z"  />
<glyph unicode="Y" horiz-adv-x="548" d="M283 311V0H266V311L40 743H59L237 402L274 331H275L311 401L488 743H508L283 311Z"  />
<glyph unicode="Z" horiz-adv-x="563" d="M30 0V15L497 727H50V743H516V727L50 15H533V0H30Z"  />
<glyph unicode="[" horiz-adv-x="336" d="M103 -208V743H293V727H120V-192H293V-208H103Z"  />
<glyph unicode="\" horiz-adv-x="404" d="M340 0L36 743H54L359 0H340Z"  />
<glyph unicode="]" horiz-adv-x="336" d="M43 -208V-192H216V727H43V743H233V-208H43Z"  />
<glyph unicode="^" horiz-adv-x="683" d="M558 388L342 645L126 388H104L330 656H354L580 388H558Z"  />
<glyph unicode="_" horiz-adv-x="577" d="M-15 -84V-68H570V-84H-15Z"  />
<glyph unicode="`" horiz-adv-x="380" d="M218 616L76 770H97L239 616H218Z"  />
<glyph unicode="a" horiz-adv-x="503" d="M407 0V44Q372 25 323 7T215 -12Q130 -12 93 27T55 146V150Q55 197 68 227T110 275T184 300T293 307H407V365Q407 413 400 444T374 494T320 519T232 527Q204 527 173 526T95 519V535Q142 540 172 541T232 543Q290 543 327 535T385 505T415 450T423 365V0H407ZM407 292H293Q233 292 191 286T122 265T83 221T71 150V146Q71 70 108 37T217 3Q273 3 323 22T407 61V292Z"  />
<glyph unicode="b" horiz-adv-x="521" d="M466 255Q466 179 454 128T414 46T345 2T243 -12Q223 -12 185 -11T85 -4V770H101V516Q143 530 184 536T252 543Q308 543 348 530T415 486T453 404T466 277V255ZM449 277Q449 352 438 400T402 476T340 516T252 527Q226 527 184 521T101 500V10Q152 5 187 4T243 3Q298 3 337 14T401 55T437 132T449 255V277Z"  />
<glyph unicode="c" horiz-adv-x="443" d="M398 1Q346 -7 317 -9T266 -12Q211 -12 172 -1T106 41T68 124T55 259V272Q55 351 68 403T107 486T173 530T266 543Q293 543 323 541T398 531V515Q351 522 321 524T266 527Q217 527 181 516T120 476T84 398T72 272V259Q72 179 83 129T119 51T179 13T266 3Q287 3 317 5T398 15V1H398Z"  />
<glyph unicode="d" horiz-adv-x="521" d="M419 0V38Q390 23 346 6T245 -12Q194 -12 158 3T99 50T66 134T55 260V272Q55 345 67 397T107 481T176 528T279 543Q298 543 330 542T419 535V770H436V0H419ZM419 520Q369 525 334 526T279 527Q224 527 185 514T121 471T84 393T72 272V260Q72 188 82 139T113 60T166 17T245 4Q299 4 344 21T419 55V520Z"  />
<glyph unicode="e" horiz-adv-x="519" d="M71 263V248Q71 180 84 133T125 58T192 17T285 4Q306 4 329 5T376 9T420 13T458 18V4Q427 -1 380 -6T285 -12Q224 -12 181 3T109 49T68 130T55 250V282Q55 343 65 391T100 473T165 525T263 543Q375 543 422 476T469 281V263H71ZM453 286Q453 406 409 466T263 527Q208 527 172 510T113 462T81 386T71 286V279H453V286Z"  />
<glyph unicode="f" horiz-adv-x="371" d="M150 513V0H134V513H20V529H134V620Q134 662 139 692T158 740T196 767T260 776Q276 776 301 774T341 770V755Q326 757 301 758T260 760Q227 760 206 754T172 731T155 688T150 620V529H338V513H150Z"  />
<glyph unicode="g" horiz-adv-x="523" d="M438 1Q438 -59 428 -100T393 -166T330 -201T235 -212Q187 -212 150 -209T71 -201V-186Q114 -191 153 -194T235 -197Q287 -197 322 -188T380 -157T412 -96T422 1V26Q396 15 353 2T255 -12Q202 -12 165 2T103 46T68 121T57 230V301Q57 367 70 412T112 487T183 529T285 542Q305 542 344 540T438 529V1ZM422 515Q380 521 342 523T285 526Q231 526 192 515T126 477T87 408T74 301V230Q74 168 84 125T117 55T173 16T256 3Q307 3 349 16T422 42V515Z"  />
<glyph unicode="h" horiz-adv-x="549" d="M452 0V331Q452 386 444 424T417 484T369 517T300 527Q248 527 196 509T102 467V0H85V770H102V484Q142 504 192 523T300 543Q348 543 380 531T432 493T460 427T469 331V0H452Z"  />
<glyph unicode="i" horiz-adv-x="197" d="M90 0V529H107V0H90ZM90 643V770H107V643H90Z"  />
<glyph unicode="j" horiz-adv-x="197" d="M107 -88Q107 -118 104 -141T90 -179T62 -203T15 -212Q7 -212 -7 -212T-44 -208V-194Q-20 -196 -7 -196T15 -197Q61 -197 75 -172T90 -88V529H107V-88ZM90 641V770H107V641H90Z"  />
<glyph unicode="k" horiz-adv-x="416" d="M382 0L102 278V0H85V770H102V282L380 529H406L125 280L406 0H382Z"  />
<glyph unicode="l" horiz-adv-x="187" d="M85 0V770H102V0H85Z"  />
<glyph unicode="m" horiz-adv-x="794" d="M697 0V359Q697 398 693 429T675 481T638 515T576 527Q538 527 493 512T396 464Q401 448 404 425T408 359V0H391V359Q391 400 387 431T370 484T333 516T270 527Q199 527 102 469V0H85V529H102V485Q150 515 192 529T270 543Q320 543 349 527T392 479Q440 512 489 527T576 543Q620 543 647 529T689 490T709 432T714 359V0H697Z"  />
<glyph unicode="n" horiz-adv-x="549" d="M452 0V331Q452 386 444 424T417 484T369 517T299 527Q248 527 198 509T102 467V0H85V529H102V484Q143 506 192 524T299 543Q347 543 379 531T432 493T460 427T469 331V0H452Z"  />
<glyph unicode="o" horiz-adv-x="534" d="M477 260Q477 191 466 140T429 55T364 5T267 -12Q210 -12 170 4T105 55T69 140T57 260V272Q57 409 105 476T267 543Q381 543 428 476T477 272V260ZM460 272Q460 407 415 467T267 527Q164 527 119 467T74 272V260Q74 124 119 64T267 3Q370 3 415 63T460 260V272Z"  />
<glyph unicode="p" horiz-adv-x="525" d="M468 260Q468 118 415 53T242 -12Q223 -12 190 -11T101 -4V-208H85V529H101V487Q116 495 136 504T181 522T233 537T288 543Q340 543 374 528T430 480T459 396T468 272V260ZM451 272Q451 342 444 390T417 469T367 513T287 527Q261 527 234 521T183 507T137 489T101 471V12Q152 7 187 6T242 4Q296 4 335 18T400 63T438 142T451 260V272Z"  />
<glyph unicode="q" horiz-adv-x="521" d="M419 -208V13Q403 7 383 3T343 -5T304 -10T269 -12Q213 -12 173 2T106 48T68 132T55 260V271Q55 348 67 400T107 483T177 528T281 542Q300 542 339 541T436 535V-208H419ZM419 521Q372 525 336 525T281 526Q225 526 186 515T121 474T83 396T71 271V260Q71 186 83 137T119 58T180 16T269 4Q299 4 340 10T419 30V521Z"  />
<glyph unicode="r" horiz-adv-x="332" d="M322 527Q308 527 285 526T233 520T170 503T101 470V0H85V529H101V486Q134 507 168 518T231 535T284 542T322 543V527H322Z"  />
<glyph unicode="s" horiz-adv-x="451" d="M401 124Q401 97 391 72T360 29T304 -1T220 -12Q171 -12 130 -7T56 6V21Q83 15 127 9T220 3Q264 3 295 12T346 37T375 76T385 124Q385 149 378 168T353 202T308 232T240 261L204 274Q129 301 90 333T50 421Q50 485 97 513T234 542Q273 542 312 538T379 527V511Q352 517 312 522T234 527Q152 527 110 504T67 421Q67 396 76 378T103 344T148 315T212 289L248 276Q288 261 317 247T364 215T392 175T401 124Z"  />
<glyph unicode="t" horiz-adv-x="364" d="M339 -5Q313 -10 288 -11T249 -12Q220 -12 201 -5T170 17T155 56T150 114V513H20V529H150V680H166V529H339V513H166V114Q166 83 170 62T183 27T209 9T249 3Q263 3 286 4T339 9V-5H339Z"  />
<glyph unicode="u" horiz-adv-x="548" d="M447 0V46Q409 25 361 7T249 -12Q201 -12 169 0T117 38T89 104T80 200V529H96V200Q96 144 104 107T132 46T179 13T249 3Q306 3 356 22T447 64V529H463V0H447Z"  />
<glyph unicode="v" horiz-adv-x="455" d="M240 0H215L20 529H38L194 103L227 13H229L262 103L416 529H435L240 0Z"  />
<glyph unicode="w" horiz-adv-x="767" d="M599 0H577L411 415L385 480H383L357 415L191 0H169L30 529H48L158 103L180 18H183L217 103L372 496H396L552 103L586 18H589L610 102L718 529H737L599 0Z"  />
<glyph unicode="x" horiz-adv-x="466" d="M424 0L233 260L41 0H20L223 273L35 529H56L235 286L413 529H434L245 273L446 0H424Z"  />
<glyph unicode="y" horiz-adv-x="461" d="M232 -31Q212 -86 196 -121T161 -176T117 -204T54 -212Q40 -212 21 -212T-18 -209V-193Q6 -195 23 -195T54 -196Q87 -196 109 -190T148 -165T180 -114T214 -28L225 2L20 529H38L203 104L232 29H236L263 103L417 529H435L232 -31Z"  />
<glyph unicode="z" horiz-adv-x="462" d="M45 0V15L390 513H57V529H411V514L65 15H412V0H45Z"  />
<glyph unicode="{" horiz-adv-x="379" d="M300 -208Q254 -208 227 -199T185 -172T166 -131T161 -77V100Q161 129 158 150T146 190T122 224T81 258V278Q106 296 121 312T146 346T158 385T161 436V612Q161 641 165 665T184 706T226 733T300 743H336V727H300Q258 727 234 719T197 696T181 660T177 612V436Q177 407 173 384T160 340T134 303T93 268Q118 251 134 234T159 196T173 153T177 100V-77Q177 -104 180 -125T196 -161T233 -184T300 -192H336V-208H300Z"  />
<glyph unicode="|" horiz-adv-x="214" d="M98 -208V743H115V-208H98Z"  />
<glyph unicode="}" horiz-adv-x="379" d="M298 258Q274 240 259 224T234 190T222 151T218 100V-77Q218 -106 214 -130T195 -172T153 -198T79 -208H43V-192H79Q121 -192 145 -184T182 -161T198 -125T202 -77V100Q202 129 206 152T219 196T245 233T286 268Q261 285 245 302T220 340T206 383T202 436V612Q202 639 199 660T183 696T146 719T79 727H43V743H79Q125 743 152 734T194 707T213 665T218 612V436Q218 407 221 386T234 346T258 312T298 278V258H298Z"  />
<glyph unicode="~" horiz-adv-x="683" d="M547 485Q547 452 544 426T533 381T509 353T467 343Q435 343 408 364T357 409L310 460Q284 488 265 502T219 516Q196 516 183 508T164 483T155 443T153 389V353H136V389Q136 422 139 448T151 493T176 522T219 532Q248 532 271 516T323 470L369 421Q394 394 417 377T467 359Q489 359 501 367T520 392T528 432T530 485V521H547V485H547Z"  />
<glyph unicode="&#xA0;" horiz-adv-x="220" />
<glyph unicode="&#xA1;" horiz-adv-x="191" d="M87 -208V342H104V-208H87ZM104 417H87V529H104V417Z"  />
<glyph unicode="&#xA2;" horiz-adv-x="441" d="M398 515Q353 521 322 524T266 527Q167 527 120 475T72 302V229Q72 166 83 123T119 54T179 15T266 3Q287 3 317 5T398 15V1Q349 -7 321 -9T272 -12V-125H256V-12Q203 -11 165 3T103 46T67 120T55 229V302Q55 423 104 481T256 543V662H272V543Q293 542 321 541T398 531V515Z"  />
<glyph unicode="&#xA3;" horiz-adv-x="609" d="M541 721Q506 724 464 727T378 730Q318 730 279 720T218 684T186 616T177 512V398H460V382H177V189Q177 130 164 92T118 16H541V0H97V16Q116 37 128 55T148 94T158 137T161 189V382H70V398H161V512Q161 575 170 619T203 692T269 733T378 746Q421 746 461 744T541 736V721Z"  />
<glyph unicode="&#xA4;" horiz-adv-x="618" d="M523 154L447 230Q418 203 383 190T309 176Q272 176 236 189T171 230L94 154L83 165L159 242Q133 271 120 306T106 379Q106 459 160 516L83 593L95 605L171 528Q200 555 235 568T308 581Q345 581 381 568T446 528L522 605L534 593L457 517Q480 491 495 456T511 379Q511 341 498 306T458 241L534 165L523 154ZM495 379Q495 415 482 448T444 508T386 549T309 565Q271 565 238 551T179 513T138 454T123 379Q123 342 137 308T177 249T236 208T309 192Q347 192 380 206T439 246T479 305T495 379Z"  />
<glyph unicode="&#xA5;" horiz-adv-x="652" d="M330 298V0H313V298H86V315H311L233 463H86V480H224L87 743H106L284 402L321 331H322L358 401L535 743H555L418 480H556V463H409L332 315H556V298H330Z"  />
<glyph unicode="&#xA6;" horiz-adv-x="214" d="M103 -208V176H120V-208H103ZM120 359H103V743H120V359Z"  />
<glyph unicode="&#xA7;" horiz-adv-x="591" d="M94 -204Q139 -209 185 -212T281 -216Q326 -216 365 -206T433 -175T478 -120T495 -41Q495 -1 485 26T451 75T389 118T296 167L247 192Q215 208 185 225T130 264T92 313T77 378Q77 411 87 441T117 491Q98 516 87 541T76 598Q76 646 95 676T145 724T216 748T299 754Q362 754 412 750T491 741V725Q459 729 411 733T299 738Q258 738 221 733T155 712T110 669T93 598Q93 564 104 538T138 491T192 450T266 409L316 384Q366 359 403 339T464 297T500 247T512 179Q512 146 505 117T483 65Q498 40 505 16T512 -41Q512 -91 494 -127T445 -186T372 -220T281 -232Q228 -232 180 -228T94 -219V-204ZM472 79Q485 99 490 124T495 179Q495 215 484 240T450 285T392 325T308 370L257 396Q159 447 128 479Q111 462 102 435T93 378Q93 343 106 318T142 273T194 237T256 205L302 182Q365 150 406 127T472 79Z"  />
<glyph unicode="&#xA8;" horiz-adv-x="410" d="M311 639V760H328V639H311ZM97 639H80V760H97V639Z"  />
<glyph unicode="&#xA9;" horiz-adv-x="820" d="M766 378Q766 291 739 224T664 110T551 40T411 16Q336 16 271 40T159 110T84 223T57 378Q57 465 84 532T158 646T271 716T411 740Q486 740 551 716T664 646T739 533T766 378ZM749 378Q749 460 724 524T654 633T547 701T411 724Q337 724 276 701T169 634T99 525T74 378Q74 295 99 231T169 122T275 55T411 32Q485 32 547 55T654 122T724 230T749 378ZM416 159Q240 159 240 355V396Q240 593 416 593Q452 593 482 590T519 585V569Q499 572 474 574T416 577Q338 577 298 535T257 396V355Q257 259 297 217T416 175Q449 175 474 177T519 183V167Q513 165 483 162T416 159Z"  />
<glyph unicode="&#xAA;" horiz-adv-x="319" d="M241 442V466Q224 457 197 446T131 434Q82 434 59 457T35 522V534Q35 561 43 578T69 606T114 620T178 624H241V652Q241 680 237 698T222 726T192 739T141 743Q136 743 127 743T106 742T82 740T60 738V752Q80 754 104 755T141 757Q176 757 198 752T233 735T251 703T256 652V442H241ZM241 609H178Q144 609 120 607T80 596T57 573T50 534V522Q50 482 71 465T132 448Q166 448 194 459T241 482V609Z"  />
<glyph unicode="&#xAB;" horiz-adv-x="487" d="M412 71L259 278L412 484H434L280 278L434 71H412ZM234 71H212L59 278L212 484H234L80 278L234 71Z"  />
<glyph unicode="&#xAC;" horiz-adv-x="683" d="M548 269V502H118V518H565V269H548Z"  />
<glyph unicode="&#xAD;" horiz-adv-x="392" d="M77 277V294H317V277H77Z"  />
<glyph unicode="&#xAE;" horiz-adv-x="657" d="M595 481Q595 420 575 369T520 281T435 222T328 201Q270 201 221 222T137 280T82 369T62 481Q62 542 82 593T137 682T221 741T328 762Q386 762 435 741T519 683T575 594T595 481ZM578 481Q578 539 561 587T510 671T431 726T328 746Q271 746 225 726T146 671T96 588T78 481Q78 424 95 376T146 292T225 237T328 217Q385 217 431 237T510 292T560 375T578 481ZM417 336L335 470H252V336H238V646Q263 648 280 648T312 649Q369 649 395 627T422 563V559Q422 517 401 498T350 473L433 336H417ZM407 563Q407 602 383 619T312 636Q298 636 282 636T252 634V484H323Q360 484 383 500T407 559V563Z"  />
<glyph unicode="&#xAF;" horiz-adv-x="439" d="M48 682V698H391V682H48Z"  />
<glyph unicode="&#xB0;" horiz-adv-x="432" d="M393 581Q393 544 380 513T343 459T287 423T219 410Q183 410 151 423T96 459T59 513T45 581Q45 618 58 649T95 704T151 741T219 754Q255 754 287 741T342 705T379 650T393 581ZM376 581Q376 615 364 644T330 694T280 726T219 738Q186 738 158 727T108 694T75 644T62 581Q62 547 74 519T108 470T157 438T219 426Q251 426 279 437T329 469T363 518T376 581Z"  />
<glyph unicode="&#xB1;" horiz-adv-x="683" d="M97 0V16H586V0H97ZM351 385V144H334V385H92V402H334V643H351V402H591V385H351Z"  />
<glyph unicode="&#xB2;" horiz-adv-x="374" d="M60 766Q84 771 113 773T173 776Q245 776 283 756T321 680Q321 659 317 642T299 609T263 577T202 542Q159 520 133 503T93 466T74 421T69 359V354H314V339H53V359Q53 398 58 425T78 473T120 512T193 554Q229 572 251 587T285 616T301 645T305 680Q305 728 272 744T173 761Q147 761 117 759T60 751V766Z"  />
<glyph unicode="&#xB3;" horiz-adv-x="368" d="M162 332Q129 332 97 335T53 340V355Q69 353 99 350T159 347Q198 347 224 353T267 372T291 407T299 459Q299 478 296 495T282 526T252 548T199 556H66V571H199Q232 571 251 580T281 603T295 635T299 671V675Q299 724 268 742T161 761Q149 761 134 760T104 758T76 756T53 753V768Q70 770 101 773T162 776Q242 776 278 755T315 675V671Q315 634 300 604T239 563Q263 558 278 548T301 523T312 492T315 457Q315 395 282 364T162 332Z"  />
<glyph unicode="&#xB4;" horiz-adv-x="415" d="M188 616H168L309 770H330L188 616Z"  />
<glyph unicode="&#xB5;" horiz-adv-x="591" d="M471 0V46Q433 25 385 7T273 -12Q209 -12 173 9T120 78V-208H104V529H120V200Q120 144 128 107T156 46T203 13T273 3Q330 3 380 22T471 64V529H487V0H471Z"  />
<glyph unicode="&#xB6;" horiz-adv-x="664" d="M455 -208V275H376Q308 275 251 285T152 320T87 390T63 505V515Q63 587 86 632T150 702T249 737T376 746H597V-208H581V730H471V-208H455ZM455 730H376Q311 730 257 722T163 690T101 624T79 515V506Q79 440 101 399T163 333T257 300T376 291H455V730Z"  />
<glyph unicode="&#xB7;" horiz-adv-x="136" d="M60 301V437H77V301H60Z"  />
<glyph unicode="&#xB8;" horiz-adv-x="390" d="M104 -208H83L214 -68H235L104 -208Z"  />
<glyph unicode="&#xB9;" horiz-adv-x="300" d="M31 339V353H140V754L31 716V731L140 769H156V353H269V339H31Z"  />
<glyph unicode="&#xBA;" horiz-adv-x="318" d="M283 582Q283 550 277 523T255 475T217 444T159 432Q125 432 102 443T64 475T42 522T35 582V608Q35 640 42 667T63 715T101 746T159 757Q193 757 216 746T255 715T276 668T283 608V582ZM268 608Q268 670 242 706T159 743Q102 743 77 707T51 608V582Q51 520 76 483T159 446Q216 446 242 483T268 582V608Z"  />
<glyph unicode="&#xBB;" horiz-adv-x="487" d="M280 71H258L412 278L258 484H280L433 278L280 71ZM233 278L80 71H58L212 278L58 484H80L233 278Z"  />
<glyph unicode="&#xBC;" horiz-adv-x="779" d="M186 0H166L640 743H660L186 0ZM48 317V331H157V733L48 695V710L157 748H173V331H287V317H48ZM639 0V130H414V145L636 430H655V145H731V130H655V0H639ZM639 411L434 145H639V411Z"  />
<glyph unicode="&#xBD;" horiz-adv-x="841" d="M186 0H166L640 743H660L186 0ZM48 317V331H157V733L48 695V710L157 748H173V331H287V317H48ZM532 427Q556 432 585 434T645 437Q717 437 755 417T793 341Q793 320 789 303T771 270T735 238T674 203Q631 181 605 164T565 127T546 82T541 20V15H786V0H525V20Q525 59 530 86T550 134T592 173T665 215Q701 233 723 248T757 277T773 306T777 341Q777 389 744 405T645 422Q619 422 589 420T532 412V427Z"  />
<glyph unicode="&#xBE;" horiz-adv-x="773" d="M180 0H160L633 743H653L180 0ZM48 747Q65 749 96 752T157 755Q237 755 273 734T310 654V650Q310 613 295 583T234 542Q258 537 273 527T296 502T307 471T310 436Q310 374 277 343T157 311Q124 311 92 314T48 319V334Q64 332 94 329T154 326Q193 326 219 332T262 351T286 386T294 438Q294 457 291 474T277 505T247 527T194 535H61V550H194Q227 550 246 559T276 582T290 614T294 650V654Q294 703 263 721T156 740Q144 740 129 739T99 737T71 735T48 732V747ZM633 0V130H408V145L630 430H649V145H725V130H649V0H633ZM633 411L428 145H633V411Z"  />
<glyph unicode="&#xBF;" horiz-adv-x="414" d="M387 -211Q350 -218 312 -221T247 -224Q208 -224 174 -219T114 -199T73 -157T58 -86Q58 -58 62 -36T78 8T109 53T160 105Q197 141 219 166T253 212T268 254T272 304V335H289V304Q289 276 286 254T270 208T234 158T171 94Q141 66 122 44T93 2T79 -39T75 -89Q75 -126 87 -149T123 -186T177 -204T247 -209Q274 -209 312 -206T387 -196V-211ZM272 415V529H289V415H272Z"  />
<glyph unicode="&#xC0;" horiz-adv-x="602" d="M563 0L457 302H144L38 0H20L289 744H313L582 0H563ZM338 630L302 731H300Q292 705 283 681T264 630L150 318H451L338 630ZM333 788L191 942H212L354 788H333Z"  />
<glyph unicode="&#xC1;" horiz-adv-x="602" d="M563 0L457 302H144L38 0H20L289 744H313L582 0H563ZM338 630L302 731H300Q292 705 283 681T264 630L150 318H451L338 630ZM279 789H259L400 943H421L279 789Z"  />
<glyph unicode="&#xC2;" horiz-adv-x="602" d="M563 0L457 302H144L38 0H20L289 744H313L582 0H563ZM338 630L302 731H300Q292 705 283 681T264 630L150 318H451L338 630ZM431 789L301 928L171 789H150L294 943H308L452 789H431Z"  />
<glyph unicode="&#xC3;" horiz-adv-x="602" d="M563 0L457 302H144L38 0H20L289 744H313L582 0H563ZM338 630L302 731H300Q292 705 283 681T264 630L150 318H451L338 630ZM474 910Q474 852 459 820T400 787Q374 787 357 799T316 837L274 886Q252 911 238 921T202 931Q182 931 171 923T153 899T146 865T144 823V789H128V823Q128 881 143 913T202 946Q215 946 225 943T245 934T263 919T284 897L327 848Q338 835 346 827T363 813T380 805T400 802Q420 802 431 810T449 834T456 868T458 910V943H474V910H474Z"  />
<glyph unicode="&#xC4;" horiz-adv-x="602" d="M563 0L457 302H144L38 0H20L289 744H313L582 0H563ZM338 630L302 731H300Q292 705 283 681T264 630L150 318H451L338 630ZM408 809V930H425V809H408ZM194 809H177V930H194V809Z"  />
<glyph unicode="&#xC5;" horiz-adv-x="602" d="M563 0L457 302H144L38 0H20L289 744H313L582 0H563ZM338 630L302 731H300Q292 705 283 681T264 630L150 318H451L338 630ZM412 880Q412 826 381 800T301 774Q253 774 221 800T189 880Q189 933 221 959T301 985Q349 985 380 959T412 880ZM396 880Q396 906 388 923T367 950T336 965T301 970Q283 970 266 966T235 951T213 923T205 880Q205 854 213 837T234 809T265 794T301 789Q319 789 336 793T366 808T388 836T396 880Z"  />
<glyph unicode="&#xC6;" horiz-adv-x="898" d="M439 0V302H144L37 0H20L288 743H843V727H455V400H814V384H455V15H843V0H439ZM439 727H298Q290 701 281 678T263 629L150 318H439V727Z"  />
<glyph unicode="&#xC7;" horiz-adv-x="535" d="M505 1Q494 -1 449 -6T332 -12Q188 -12 122 79T55 367V376Q55 572 121 663T332 754Q397 754 441 749T505 741V726Q482 729 438 733T332 738Q264 738 215 717T134 652T87 540T71 376V367Q71 271 86 203T134 90T215 25T332 4Q398 4 440 9T505 17V1ZM212 -208H191L322 -68H343L212 -208Z"  />
<glyph unicode="&#xC8;" horiz-adv-x="544" d="M85 0V743H489V727H101V400H460V384H101V15H489V0H85ZM293 789L151 943H172L314 789H293Z"  />
<glyph unicode="&#xC9;" horiz-adv-x="544" d="M85 0V743H489V727H101V400H460V384H101V15H489V0H85ZM275 789H255L396 943H417L275 789Z"  />
<glyph unicode="&#xCA;" horiz-adv-x="544" d="M85 0V743H489V727H101V400H460V384H101V15H489V0H85ZM422 789L292 928L162 789H141L285 943H299L443 789H422Z"  />
<glyph unicode="&#xCB;" horiz-adv-x="544" d="M85 0V743H489V727H101V400H460V384H101V15H489V0H85ZM379 809V930H396V809H379ZM165 809H148V930H165V809Z"  />
<glyph unicode="&#xCC;" horiz-adv-x="197" d="M90 0V743H107V0H90ZM128 789L-14 943H7L149 789H128Z"  />
<glyph unicode="&#xCD;" horiz-adv-x="197" d="M90 0V743H107V0H90ZM60 789H40L181 943H202L60 789Z"  />
<glyph unicode="&#xCE;" horiz-adv-x="197" d="M90 0V743H107V0H90ZM229 789L99 928L-31 789H-52L92 943H106L250 789H229Z"  />
<glyph unicode="&#xCF;" horiz-adv-x="197" d="M90 0V743H107V0H90ZM208 808V929H225V808H208ZM-6 808H-23V929H-6V808Z"  />
<glyph unicode="&#xD0;" horiz-adv-x="629" d="M574 360Q574 259 556 189T499 74T404 9T270 -12Q208 -12 165 -8T85 0V380H20V397H85V744Q111 746 130 747T168 750T211 752T270 753Q347 753 404 733T499 668T555 553T574 382V360ZM558 382Q558 481 539 549T484 659T394 719T270 737Q211 737 173 735T101 729V397H299V380H101V14Q133 11 175 8T270 4Q340 4 393 22T483 83T539 193T558 360V382Z"  />
<glyph unicode="&#xD1;" horiz-adv-x="664" d="M557 -3L140 663L103 722H102V649V0H85V743H107L530 68L562 17H563V79V743H579V-3H557ZM509 910Q509 852 494 820T435 787Q409 787 392 799T351 837L309 886Q287 911 273 921T237 931Q217 931 206 923T188 899T181 865T179 823V789H163V823Q163 881 178 913T237 946Q250 946 260 943T280 934T298 919T319 897L362 848Q373 835 381 827T398 813T415 805T435 802Q455 802 466 810T484 834T491 868T493 910V943H509V910H509Z"  />
<glyph unicode="&#xD2;" horiz-adv-x="646" d="M591 361Q591 256 572 185T518 70T434 7T323 -12Q262 -12 213 7T128 69T74 184T55 361V382Q55 488 74 559T128 673T212 735T323 754Q384 754 433 736T518 674T572 559T591 382V361ZM575 382Q575 487 556 556T504 665T424 722T323 738Q269 738 223 722T143 666T90 556T71 382V361Q71 256 90 187T143 78T223 21T323 4Q377 4 423 20T503 77T556 187T575 361V382ZM346 789L204 943H225L367 789H346Z"  />
<glyph unicode="&#xD3;" horiz-adv-x="646" d="M591 361Q591 256 572 185T518 70T434 7T323 -12Q262 -12 213 7T128 69T74 184T55 361V382Q55 488 74 559T128 673T212 735T323 754Q384 754 433 736T518 674T572 559T591 382V361ZM575 382Q575 487 556 556T504 665T424 722T323 738Q269 738 223 722T143 666T90 556T71 382V361Q71 256 90 187T143 78T223 21T323 4Q377 4 423 20T503 77T556 187T575 361V382ZM304 789H284L425 943H446L304 789Z"  />
<glyph unicode="&#xD4;" horiz-adv-x="646" d="M591 361Q591 256 572 185T518 70T434 7T323 -12Q262 -12 213 7T128 69T74 184T55 361V382Q55 488 74 559T128 673T212 735T323 754Q384 754 433 736T518 674T572 559T591 382V361ZM575 382Q575 487 556 556T504 665T424 722T323 738Q269 738 223 722T143 666T90 556T71 382V361Q71 256 90 187T143 78T223 21T323 4Q377 4 423 20T503 77T556 187T575 361V382ZM453 789L323 928L193 789H172L316 943H330L474 789H453Z"  />
<glyph unicode="&#xD5;" horiz-adv-x="646" d="M591 361Q591 256 572 185T518 70T434 7T323 -12Q262 -12 213 7T128 69T74 184T55 361V382Q55 488 74 559T128 673T212 735T323 754Q384 754 433 736T518 674T572 559T591 382V361ZM575 382Q575 487 556 556T504 665T424 722T323 738Q269 738 223 722T143 666T90 556T71 382V361Q71 256 90 187T143 78T223 21T323 4Q377 4 423 20T503 77T556 187T575 361V382ZM496 913Q496 855 481 823T422 790Q396 790 379 802T338 840L296 889Q274 914 260 924T224 934Q204 934 193 926T175 902T168 868T166 826V792H150V826Q150 884 165 916T224 949Q237 949 247 946T267 937T285 922T306 900L349 851Q360 838 368 830T385 816T402 808T422 805Q442 805 453 813T471 837T478 871T480 913V946H496V913H496Z"  />
<glyph unicode="&#xD6;" horiz-adv-x="646" d="M591 361Q591 256 572 185T518 70T434 7T323 -12Q262 -12 213 7T128 69T74 184T55 361V382Q55 488 74 559T128 673T212 735T323 754Q384 754 433 736T518 674T572 559T591 382V361ZM575 382Q575 487 556 556T504 665T424 722T323 738Q269 738 223 722T143 666T90 556T71 382V361Q71 256 90 187T143 78T223 21T323 4Q377 4 423 20T503 77T556 187T575 361V382ZM430 809V930H447V809H430ZM216 809H199V930H216V809Z"  />
<glyph unicode="&#xD7;" horiz-adv-x="683" d="M532 190L341 381L150 189L138 201L330 392L137 584L149 596L341 404L533 596L545 584L353 392L544 202L532 190Z"  />
<glyph unicode="&#xD8;" horiz-adv-x="646" d="M591 361Q591 256 572 185T518 70T434 7T323 -12Q262 -12 213 6T128 68L81 0H62L118 81Q87 126 71 194T55 361V382Q55 488 74 559T128 673T212 735T323 754Q386 754 437 734T523 666L577 744H596L533 653Q561 608 576 542T591 382V361ZM513 652Q479 700 431 719T323 738Q269 738 223 722T143 666T90 556T71 382V361Q71 267 86 203T129 96L513 652ZM575 382Q575 472 561 534T522 638L138 83Q173 38 219 21T323 4Q377 4 423 20T503 77T556 187T575 361V382Z"  />
<glyph unicode="&#xD9;" horiz-adv-x="650" d="M570 339Q570 253 558 188T518 79T442 13T325 -9Q255 -9 208 13T133 79T92 188T80 339V743H96V339Q96 254 107 192T145 88T216 27T325 7Q390 7 434 27T504 88T542 191T554 339V743H570V339H570ZM347 789L205 943H226L368 789H347Z"  />
<glyph unicode="&#xDA;" horiz-adv-x="650" d="M570 339Q570 253 558 188T518 79T442 13T325 -9Q255 -9 208 13T133 79T92 188T80 339V743H96V339Q96 254 107 192T145 88T216 27T325 7Q390 7 434 27T504 88T542 191T554 339V743H570V339H570ZM309 789H289L430 943H451L309 789Z"  />
<glyph unicode="&#xDB;" horiz-adv-x="650" d="M570 339Q570 253 558 188T518 79T442 13T325 -9Q255 -9 208 13T133 79T92 188T80 339V743H96V339Q96 254 107 192T145 88T216 27T325 7Q390 7 434 27T504 88T542 191T554 339V743H570V339H570ZM455 789L325 928L195 789H174L318 943H332L476 789H455Z"  />
<glyph unicode="&#xDC;" horiz-adv-x="650" d="M570 339Q570 253 558 188T518 79T442 13T325 -9Q255 -9 208 13T133 79T92 188T80 339V743H96V339Q96 254 107 192T145 88T216 27T325 7Q390 7 434 27T504 88T542 191T554 339V743H570V339H570ZM432 809V930H449V809H432ZM218 809H201V930H218V809Z"  />
<glyph unicode="&#xDD;" horiz-adv-x="548" d="M283 311V0H266V311L40 743H59L237 402L274 331H275L311 401L488 743H508L283 311ZM283 789H263L404 943H425L283 789Z"  />
<glyph unicode="&#xDE;" horiz-adv-x="560" d="M80 0V743H96V627Q144 629 181 630T249 631Q388 631 448 576T509 419V397Q509 295 449 240T249 185Q218 185 181 186T96 189V0H80ZM493 419Q493 518 436 566T249 615Q216 615 179 614T96 611V205Q142 203 179 202T249 201Q378 201 435 249T493 397V419Z"  />
<glyph unicode="&#xDF;" horiz-adv-x="582" d="M536 204Q536 100 484 44T323 -12Q312 -12 301 -12T273 -10V5Q292 3 301 3T323 3Q418 3 468 53T519 204V217Q519 301 469 347T304 393H273V409H304Q359 409 397 422T459 460T493 517T504 592V597Q504 637 495 669T463 725T405 760T313 772Q259 772 222 758T163 715T131 643T121 542V0H104V542Q104 601 114 647T149 724T214 772T313 788Q371 788 411 774T475 735T509 675T520 597V592Q520 509 479 460T364 401Q401 399 432 386T487 350T523 294T536 217V204H536Z"  />
<glyph unicode="&#xE0;" horiz-adv-x="503" d="M407 0V44Q372 25 323 7T215 -12Q130 -12 93 27T55 146V150Q55 197 68 227T110 275T184 300T293 307H407V365Q407 413 400 444T374 494T320 519T232 527Q204 527 173 526T95 519V535Q142 540 172 541T232 543Q290 543 327 535T385 505T415 450T423 365V0H407ZM407 292H293Q233 292 191 286T122 265T83 221T71 150V146Q71 70 108 37T217 3Q273 3 323 22T407 61V292ZM270 616L128 770H149L291 616H270Z"  />
<glyph unicode="&#xE1;" horiz-adv-x="503" d="M407 0V44Q372 25 323 7T215 -12Q130 -12 93 27T55 146V150Q55 197 68 227T110 275T184 300T293 307H407V365Q407 413 400 444T374 494T320 519T232 527Q204 527 173 526T95 519V535Q142 540 172 541T232 543Q290 543 327 535T385 505T415 450T423 365V0H407ZM407 292H293Q233 292 191 286T122 265T83 221T71 150V146Q71 70 108 37T217 3Q273 3 323 22T407 61V292ZM253 616H233L374 770H395L253 616Z"  />
<glyph unicode="&#xE2;" horiz-adv-x="503" d="M407 0V44Q372 25 323 7T215 -12Q130 -12 93 27T55 146V150Q55 197 68 227T110 275T184 300T293 307H407V365Q407 413 400 444T374 494T320 519T232 527Q204 527 173 526T95 519V535Q142 540 172 541T232 543Q290 543 327 535T385 505T415 450T423 365V0H407ZM407 292H293Q233 292 191 286T122 265T83 221T71 150V146Q71 70 108 37T217 3Q273 3 323 22T407 61V292ZM381 616L251 755L121 616H100L244 770H258L402 616H381Z"  />
<glyph unicode="&#xE3;" horiz-adv-x="503" d="M407 0V44Q372 25 323 7T215 -12Q130 -12 93 27T55 146V150Q55 197 68 227T110 275T184 300T293 307H407V365Q407 413 400 444T374 494T320 519T232 527Q204 527 173 526T95 519V535Q142 540 172 541T232 543Q290 543 327 535T385 505T415 450T423 365V0H407ZM407 292H293Q233 292 191 286T122 265T83 221T71 150V146Q71 70 108 37T217 3Q273 3 323 22T407 61V292ZM424 740Q424 682 409 650T350 617Q324 617 307 629T266 667L224 716Q202 741 188 751T152 761Q132 761 121 753T103 729T96 695T94 653V619H78V653Q78 711 93 743T152 776Q165 776 175 773T195 764T213 749T234 727L277 678Q288 665 296 657T313 643T330 635T350 632Q370 632 381 640T399 664T406 698T408 740V773H424V740H424Z"  />
<glyph unicode="&#xE4;" horiz-adv-x="503" d="M407 0V44Q372 25 323 7T215 -12Q130 -12 93 27T55 146V150Q55 197 68 227T110 275T184 300T293 307H407V365Q407 413 400 444T374 494T320 519T232 527Q204 527 173 526T95 519V535Q142 540 172 541T232 543Q290 543 327 535T385 505T415 450T423 365V0H407ZM407 292H293Q233 292 191 286T122 265T83 221T71 150V146Q71 70 108 37T217 3Q273 3 323 22T407 61V292ZM358 639V760H375V639H358ZM144 639H127V760H144V639Z"  />
<glyph unicode="&#xE5;" horiz-adv-x="503" d="M407 0V44Q372 25 323 7T215 -12Q130 -12 93 27T55 146V150Q55 197 68 227T110 275T184 300T293 307H407V365Q407 413 400 444T374 494T320 519T232 527Q204 527 173 526T95 519V535Q142 540 172 541T232 543Q290 543 327 535T385 505T415 450T423 365V0H407ZM407 292H293Q233 292 191 286T122 265T83 221T71 150V146Q71 70 108 37T217 3Q273 3 323 22T407 61V292ZM363 703Q363 649 332 623T252 597Q204 597 172 623T140 703Q140 756 172 782T252 808Q300 808 331 782T363 703ZM347 703Q347 729 339 746T318 773T287 788T252 793Q234 793 217 789T186 774T164 746T156 703Q156 677 164 660T185 632T216 617T252 612Q270 612 287 616T317 631T339 659T347 703Z"  />
<glyph unicode="&#xE6;" horiz-adv-x="869" d="M813 4Q782 -1 734 -6T638 -12Q591 -12 555 -9T491 3T446 27T416 68Q375 33 321 11T204 -12Q134 -12 94 25T53 135V159Q53 202 66 231T109 276T183 300T292 307H406V365Q406 412 399 443T373 493T319 519T231 527Q209 527 170 525T88 519V534Q133 539 172 541T231 543Q285 543 320 535T376 511T407 471T421 416Q438 473 486 508T618 543Q676 543 716 525T781 474T816 399T827 305V263H423V119Q423 81 439 58T483 23T551 7T638 3Q686 3 733 8T813 19V4ZM811 306Q811 356 800 396T766 466T706 511T618 527Q564 527 527 511T467 467T433 405T423 330V279H811V306ZM406 292H292Q231 292 189 287T121 266T82 225T70 159V135Q70 68 106 36T206 3Q265 3 317 26T406 80V292Z"  />
<glyph unicode="&#xE7;" horiz-adv-x="443" d="M398 1Q346 -7 317 -9T266 -12Q211 -12 172 -1T106 41T68 124T55 259V272Q55 351 68 403T107 486T173 530T266 543Q293 543 323 541T398 531V515Q351 522 321 524T266 527Q217 527 181 516T120 476T84 398T72 272V259Q72 179 83 129T119 51T179 13T266 3Q287 3 317 5T398 15V1ZM161 -208H140L271 -68H292L161 -208Z"  />
<glyph unicode="&#xE8;" horiz-adv-x="519" d="M71 263V248Q71 180 84 133T125 58T192 17T285 4Q306 4 329 5T376 9T420 13T458 18V4Q427 -1 380 -6T285 -12Q224 -12 181 3T109 49T68 130T55 250V282Q55 343 65 391T100 473T165 525T263 543Q375 543 422 476T469 281V263H71ZM453 286Q453 406 409 466T263 527Q208 527 172 510T113 462T81 386T71 286V279H453V286ZM282 616L140 770H161L303 616H282Z"  />
<glyph unicode="&#xE9;" horiz-adv-x="519" d="M71 263V248Q71 180 84 133T125 58T192 17T285 4Q306 4 329 5T376 9T420 13T458 18V4Q427 -1 380 -6T285 -12Q224 -12 181 3T109 49T68 130T55 250V282Q55 343 65 391T100 473T165 525T263 543Q375 543 422 476T469 281V263H71ZM453 286Q453 406 409 466T263 527Q208 527 172 510T113 462T81 386T71 286V279H453V286ZM259 616H239L380 770H401L259 616Z"  />
<glyph unicode="&#xEA;" horiz-adv-x="519" d="M71 263V248Q71 180 84 133T125 58T192 17T285 4Q306 4 329 5T376 9T420 13T458 18V4Q427 -1 380 -6T285 -12Q224 -12 181 3T109 49T68 130T55 250V282Q55 343 65 391T100 473T165 525T263 543Q375 543 422 476T469 281V263H71ZM453 286Q453 406 409 466T263 527Q208 527 172 510T113 462T81 386T71 286V279H453V286ZM389 616L259 755L129 616H108L252 770H266L410 616H389Z"  />
<glyph unicode="&#xEB;" horiz-adv-x="519" d="M71 263V248Q71 180 84 133T125 58T192 17T285 4Q306 4 329 5T376 9T420 13T458 18V4Q427 -1 380 -6T285 -12Q224 -12 181 3T109 49T68 130T55 250V282Q55 343 65 391T100 473T165 525T263 543Q375 543 422 476T469 281V263H71ZM453 286Q453 406 409 466T263 527Q208 527 172 510T113 462T81 386T71 286V279H453V286ZM366 639V760H383V639H366ZM152 639H135V760H152V639Z"  />
<glyph unicode="&#xEC;" horiz-adv-x="197" d="M90 0V529H107V0H90ZM127 616L-15 770H6L148 616H127Z"  />
<glyph unicode="&#xED;" horiz-adv-x="197" d="M90 0V529H107V0H90ZM79 616H59L200 770H221L79 616Z"  />
<glyph unicode="&#xEE;" horiz-adv-x="197" d="M90 0V529H107V0H90ZM230 616L100 755L-30 616H-51L93 770H107L251 616H230Z"  />
<glyph unicode="&#xEF;" horiz-adv-x="197" d="M90 0V529H107V0H90ZM207 639V760H224V639H207ZM-7 639H-24V760H-7V639Z"  />
<glyph unicode="&#xF0;" horiz-adv-x="534" d="M477 235Q477 181 466 135T429 56T364 5T267 -14Q210 -14 170 4T105 56T69 135T57 235V294Q57 349 68 394T105 473T170 524T267 543Q339 543 384 514T452 436Q433 536 397 603T290 711L147 613L139 624L276 719Q241 737 203 745T121 756Q113 757 104 757T87 757V771Q95 771 104 771T121 770Q163 768 204 759T290 728L379 786L388 775L303 720Q388 669 432 568T477 294V235ZM460 294Q460 404 415 465T267 527Q164 527 119 466T73 294V235Q73 181 84 138T119 64T179 17T267 1Q318 1 355 17T415 63T449 137T460 235V294Z"  />
<glyph unicode="&#xF1;" horiz-adv-x="549" d="M452 0V331Q452 386 444 424T417 484T369 517T299 527Q248 527 198 509T102 467V0H85V529H102V484Q143 506 192 524T299 543Q347 543 379 531T432 493T460 427T469 331V0H452ZM450 740Q450 682 435 650T376 617Q350 617 333 629T292 667L250 716Q228 741 214 751T178 761Q158 761 147 753T129 729T122 695T120 653V619H104V653Q104 711 119 743T178 776Q191 776 201 773T221 764T239 749T260 727L303 678Q314 665 322 657T339 643T356 635T376 632Q396 632 407 640T425 664T432 698T434 740V773H450V740H450Z"  />
<glyph unicode="&#xF2;" horiz-adv-x="534" d="M477 260Q477 191 466 140T429 55T364 5T267 -12Q210 -12 170 4T105 55T69 140T57 260V272Q57 409 105 476T267 543Q381 543 428 476T477 272V260ZM460 272Q460 407 415 467T267 527Q164 527 119 467T74 272V260Q74 124 119 64T267 3Q370 3 415 63T460 260V272ZM277 616L135 770H156L298 616H277Z"  />
<glyph unicode="&#xF3;" horiz-adv-x="534" d="M477 260Q477 191 466 140T429 55T364 5T267 -12Q210 -12 170 4T105 55T69 140T57 260V272Q57 409 105 476T267 543Q381 543 428 476T477 272V260ZM460 272Q460 407 415 467T267 527Q164 527 119 467T74 272V260Q74 124 119 64T267 3Q370 3 415 63T460 260V272ZM254 616H234L375 770H396L254 616Z"  />
<glyph unicode="&#xF4;" horiz-adv-x="534" d="M477 260Q477 191 466 140T429 55T364 5T267 -12Q210 -12 170 4T105 55T69 140T57 260V272Q57 409 105 476T267 543Q381 543 428 476T477 272V260ZM460 272Q460 407 415 467T267 527Q164 527 119 467T74 272V260Q74 124 119 64T267 3Q370 3 415 63T460 260V272ZM397 616L267 755L137 616H116L260 770H274L418 616H397Z"  />
<glyph unicode="&#xF5;" horiz-adv-x="534" d="M477 260Q477 191 466 140T429 55T364 5T267 -12Q210 -12 170 4T105 55T69 140T57 260V272Q57 409 105 476T267 543Q381 543 428 476T477 272V260ZM460 272Q460 407 415 467T267 527Q164 527 119 467T74 272V260Q74 124 119 64T267 3Q370 3 415 63T460 260V272ZM440 740Q440 682 425 650T366 617Q340 617 323 629T282 667L240 716Q218 741 204 751T168 761Q148 761 137 753T119 729T112 695T110 653V619H94V653Q94 711 109 743T168 776Q181 776 191 773T211 764T229 749T250 727L293 678Q304 665 312 657T329 643T346 635T366 632Q386 632 397 640T415 664T422 698T424 740V773H440V740H440Z"  />
<glyph unicode="&#xF6;" horiz-adv-x="534" d="M477 260Q477 191 466 140T429 55T364 5T267 -12Q210 -12 170 4T105 55T69 140T57 260V272Q57 409 105 476T267 543Q381 543 428 476T477 272V260ZM460 272Q460 407 415 467T267 527Q164 527 119 467T74 272V260Q74 124 119 64T267 3Q370 3 415 63T460 260V272ZM374 639V760H391V639H374ZM160 639H143V760H160V639Z"  />
<glyph unicode="&#xF7;" horiz-adv-x="683" d="M333 93V222H349V93H333ZM593 380H90V397H593V380ZM333 533V662H349V533H333Z"  />
<glyph unicode="&#xF8;" horiz-adv-x="534" d="M477 260Q477 191 466 140T429 55T364 5T267 -12Q166 -12 115 43L64 -26H44L105 56Q80 90 69 140T57 260V272Q57 409 105 476T267 543Q321 543 359 528T423 483L477 555H497L433 469Q456 435 466 387T477 272V260ZM460 272Q460 395 422 455L125 56Q171 3 267 3Q370 3 415 63T460 260V272ZM413 469Q368 527 267 527Q164 527 119 467T74 272V260Q74 130 115 69L413 469Z"  />
<glyph unicode="&#xF9;" horiz-adv-x="548" d="M447 0V46Q409 25 361 7T249 -12Q201 -12 169 0T117 38T89 104T80 200V529H96V200Q96 144 104 107T132 46T179 13T249 3Q306 3 356 22T447 64V529H463V0H447ZM286 616L144 770H165L307 616H286Z"  />
<glyph unicode="&#xFA;" horiz-adv-x="548" d="M447 0V46Q409 25 361 7T249 -12Q201 -12 169 0T117 38T89 104T80 200V529H96V200Q96 144 104 107T132 46T179 13T249 3Q306 3 356 22T447 64V529H463V0H447ZM269 616H249L390 770H411L269 616Z"  />
<glyph unicode="&#xFB;" horiz-adv-x="548" d="M447 0V46Q409 25 361 7T249 -12Q201 -12 169 0T117 38T89 104T80 200V529H96V200Q96 144 104 107T132 46T179 13T249 3Q306 3 356 22T447 64V529H463V0H447ZM404 616L274 755L144 616H123L267 770H281L425 616H404Z"  />
<glyph unicode="&#xFC;" horiz-adv-x="548" d="M447 0V46Q409 25 361 7T249 -12Q201 -12 169 0T117 38T89 104T80 200V529H96V200Q96 144 104 107T132 46T179 13T249 3Q306 3 356 22T447 64V529H463V0H447ZM381 639V760H398V639H381ZM167 639H150V760H167V639Z"  />
<glyph unicode="&#xFD;" horiz-adv-x="461" d="M232 -31Q212 -86 196 -121T161 -176T117 -204T54 -212Q40 -212 21 -212T-18 -209V-193Q6 -195 23 -195T54 -196Q87 -196 109 -190T148 -165T180 -114T214 -28L225 2L20 529H38L203 104L232 29H236L263 103L417 529H435L232 -31ZM235 616H215L356 770H377L235 616Z"  />
<glyph unicode="&#xFE;" horiz-adv-x="525" d="M85 -208V770H102V487Q117 495 137 504T182 522T234 537T288 543Q340 543 374 528T430 480T459 396T468 272V260Q468 118 415 53T242 -12Q223 -12 191 -11T102 -4V-208H85ZM452 272Q452 342 444 390T418 469T368 513T288 527Q262 527 235 521T183 507T137 489T102 471V12Q152 7 187 6T242 4Q297 4 336 18T401 63T439 142T452 260V272Z"  />
<glyph unicode="&#xFF;" horiz-adv-x="461" d="M232 -31Q212 -86 196 -121T161 -176T117 -204T54 -212Q40 -212 21 -212T-18 -209V-193Q6 -195 23 -195T54 -196Q87 -196 109 -190T148 -165T180 -114T214 -28L225 2L20 529H38L203 104L232 29H236L263 103L417 529H435L232 -31ZM340 639V760H357V639H340ZM126 639H109V760H126V639Z"  />
<glyph unicode="&#x131;" horiz-adv-x="197" d="M90 0V529H107V0H90Z"  />
<glyph unicode="&#x152;" horiz-adv-x="959" d="M895 0H519Q471 -8 421 -11T333 -14Q272 -14 221 5T134 65T77 173T56 336V405Q56 500 76 566T133 674T221 735T333 754Q368 754 413 752T504 743H895V727H507V400H866V384H507V15H895V0ZM491 729Q448 735 405 737T333 739Q278 739 231 723T148 667T92 564T72 405V336Q72 241 92 177T147 73T230 18T333 1Q362 1 405 3T491 11V729Z"  />
<glyph unicode="&#x153;" horiz-adv-x="918" d="M469 263V234Q469 169 485 125T531 54T600 15T685 3Q708 3 732 4T780 8T823 13T860 19V4Q829 -1 781 -6T685 -12Q648 -12 613 -5T549 21T496 69T460 147Q453 114 439 85T401 34T343 -1T259 -14Q202 -14 162 4T97 56T61 135T49 235V294Q49 349 60 394T97 473T162 524T259 543Q303 543 337 532T396 499T436 450T460 388Q475 456 524 499T663 543Q720 543 759 525T824 474T860 397T872 301V263H469ZM856 301Q856 353 845 394T811 465T751 511T663 527Q607 527 570 510T511 461T479 389T469 301V279H856V301ZM452 294Q452 409 406 468T259 527Q156 527 111 466T65 294V235Q65 181 76 138T111 64T171 17T259 1Q310 1 347 17T407 63T441 137T452 235V294Z"  />
<glyph unicode="&#x160;" horiz-adv-x="546" d="M491 173Q491 76 433 32T263 -12Q202 -12 153 -8T70 1V16Q81 14 101 12T147 9T203 6T263 4Q310 4 349 12T415 40T458 92T474 172Q474 211 463 238T429 287T369 329T282 377L233 403Q195 423 163 442T106 484T69 535T55 600Q55 642 70 671T115 719T185 745T277 754Q331 754 381 750T469 741V726Q455 728 434 730T386 734T332 737T277 739Q231 739 193 732T128 709T86 666T71 600Q71 566 83 541T118 495T172 456T242 417L289 392Q340 365 378 343T441 297T478 244T491 173ZM139 944L269 805L399 944H420L276 790H262L118 944H139Z"  />
<glyph unicode="&#x161;" horiz-adv-x="451" d="M401 124Q401 97 391 72T360 29T304 -1T220 -12Q171 -12 130 -7T56 6V21Q83 15 127 9T220 3Q264 3 295 12T346 37T375 76T385 124Q385 149 378 168T353 202T308 232T240 261L204 274Q129 301 90 333T50 421Q50 485 97 513T234 542Q273 542 312 538T379 527V511Q352 517 312 522T234 527Q152 527 110 504T67 421Q67 396 76 378T103 344T148 315T212 289L248 276Q288 261 317 247T364 215T392 175T401 124ZM95 770L225 631L355 770H376L232 616H218L74 770H95Z"  />
<glyph unicode="&#x178;" horiz-adv-x="548" d="M283 311V0H266V311L40 743H59L237 402L274 331H275L311 401L488 743H508L283 311ZM382 809V930H399V809H382ZM168 809H151V930H168V809Z"  />
<glyph unicode="&#x17D;" horiz-adv-x="563" d="M30 0V15L497 727H50V743H516V727L50 15H533V0H30ZM156 943L286 804L416 943H437L293 789H279L135 943H156Z"  />
<glyph unicode="&#x17E;" horiz-adv-x="462" d="M45 0V15L390 513H57V529H411V514L65 15H412V0H45ZM98 770L228 631L358 770H379L235 616H221L77 770H98Z"  />
<glyph unicode="&#x192;" horiz-adv-x="609" d="M556 735Q542 737 519 738T479 740Q446 740 423 734T385 711T362 668T348 600L324 402H512L510 386H322L274 -7Q269 -51 260 -80T233 -128T190 -154T125 -162Q110 -162 86 -160T48 -156L50 -142Q66 -144 89 -145T127 -147Q160 -147 183 -141T221 -118T244 -75T258 -7L305 386H150L152 402H307L332 600Q338 643 347 672T373 720T416 747T481 755Q496 755 520 753T559 749L556 735Z"  />
<glyph unicode="&#x2C6;" horiz-adv-x="446" d="M353 616L223 755L93 616H72L216 770H230L374 616H353Z"  />
<glyph unicode="&#x2DC;" horiz-adv-x="429" d="M383 740Q383 682 368 650T309 617Q283 617 266 629T225 667L183 716Q161 741 147 751T111 761Q91 761 80 753T62 729T55 695T53 653V619H37V653Q37 711 52 743T111 776Q124 776 134 773T154 764T172 749T193 727L236 678Q247 665 255 657T272 643T289 635T309 632Q329 632 340 640T358 664T365 698T367 740V773H383V740H383Z"  />
<glyph unicode="&#x2013;" horiz-adv-x="487" d="M65 277V294H421V277H65Z"  />
<glyph unicode="&#x2014;" horiz-adv-x="625" d="M65 277V294H560V277H65Z"  />
<glyph unicode="&#x2018;" horiz-adv-x="121" d="M39 541H20L83 770H101L39 541Z"  />
<glyph unicode="&#x2019;" horiz-adv-x="121" d="M37 541H20L81 770H101L37 541Z"  />
<glyph unicode="&#x201A;" horiz-adv-x="121" d="M38 -94H20L81 134H101L38 -94Z"  />
<glyph unicode="&#x201C;" horiz-adv-x="305" d="M224 541H204L268 770H285L224 541ZM101 770L40 541H20L84 770H101Z"  />
<glyph unicode="&#x201D;" horiz-adv-x="305" d="M221 541H204L265 770H285L221 541ZM101 770L37 541H20L81 770H101Z"  />
<glyph unicode="&#x201E;" horiz-adv-x="305" d="M222 -94H204L265 134H285L222 -94ZM101 134L38 -94H20L81 134H101Z"  />
<glyph unicode="&#x2020;" horiz-adv-x="463" d="M238 523V-100H221V523H80V540H221V770H238V540H392V523H238Z"  />
<glyph unicode="&#x2021;" horiz-adv-x="463" d="M238 295V-100H221V295H74V312H221V519H74V536H221V770H238V536H398V519H238V312H398V295H238Z"  />
<glyph unicode="&#x2022;" horiz-adv-x="506" d="M437 369Q437 332 423 300T385 243T328 204T258 190Q221 190 189 204T132 242T93 299T79 369Q79 406 93 439T131 496T188 535T258 549Q295 549 327 535T384 497T423 439T437 369ZM421 369Q421 403 408 433T373 485T321 521T258 534Q225 534 195 521T143 486T108 433T95 369Q95 336 108 306T143 254T195 219T258 206Q291 206 321 219T373 254T408 306T421 369Z"  />
<glyph unicode="&#x2026;" horiz-adv-x="660" d="M62 0V132H78V0H62ZM322 0V132H338V0H322ZM582 0V132H598V0H582Z"  />
<glyph unicode="&#x2030;" horiz-adv-x="1277" d="M1226 180Q1226 127 1215 91T1185 31T1139 -2T1080 -13Q1048 -13 1021 -3T975 31T945 90T934 180V238Q934 290 944 327T974 387T1021 420T1080 431Q1112 431 1138 421T1184 387T1215 327T1226 238V180ZM1210 238Q1210 289 1200 323T1173 377T1132 406T1080 415Q1052 415 1028 407T987 378T960 323T950 238V179Q950 128 960 95T987 41T1028 12T1080 3Q1108 3 1132 11T1173 40T1200 94T1210 179V238ZM858 180Q858 127 847 91T817 31T771 -2T712 -13Q680 -13 653 -3T607 31T576 90T565 180V238Q565 290 576 327T606 387T653 420T712 431Q744 431 770 421T816 387T847 327T858 238V180ZM841 238Q841 289 831 323T804 377T764 406T712 415Q684 415 660 407T619 378T592 323T582 238V179Q582 128 592 95T619 41T660 12T712 3Q740 3 763 11T804 40T831 94T841 179V238ZM234 0H214L688 743H708L234 0ZM354 503Q354 450 343 414T313 354T266 321T207 310Q175 310 148 320T102 354T72 414T61 503V562Q61 614 71 650T101 710T148 744T207 755Q239 755 266 745T312 711T343 651T354 562V503ZM337 562Q337 613 327 647T300 701T259 730T207 739Q179 739 156 731T115 702T87 647T77 562V503Q77 452 87 418T114 364T155 335T207 326Q235 326 259 334T300 363T327 418T337 503V562Z"  />
<glyph unicode="&#x2039;" horiz-adv-x="287" d="M212 71L58 278L212 484H233L80 278L233 71H212Z"  />
<glyph unicode="&#x203A;" horiz-adv-x="287" d="M80 71H58L212 278L58 484H80L233 278L80 71Z"  />
<glyph unicode="&#x20AC;" horiz-adv-x="577" d="M357 738Q238 738 178 673T102 473H470L466 456H100Q98 438 97 419T96 378Q96 357 97 336T100 291H422L418 275H101Q115 138 176 71T357 4Q416 4 461 9T530 18V3Q506 -1 462 -6T357 -12Q228 -12 164 60T84 275H24V291H83Q81 327 80 344T79 374Q79 396 80 416T84 456H24V473H85Q101 613 165 683T357 754Q417 754 461 749T530 739V724Q507 727 462 732T357 738Z"  />
<glyph unicode="&#x2122;" horiz-adv-x="828" d="M747 349V643V730H746L696 657L604 521H587L496 656L446 730H445V644V349H430V743H455L556 593L595 535H596L635 593L736 743H762V349H747ZM203 727V349H187V727H41V743H350V727H203Z"  />

</font>
</defs>
</svg>
