<?xml version="1.0" encoding="utf-8"?>
<!-- Generator: Adobe Illustrator 16.2.1, SVG Export Plug-In . SVG Version: 6.00 Build 0)  -->
<!DOCTYPE svg PUBLIC "-//W3C//DTD SVG 1.1//EN" "http://www.w3.org/Graphics/SVG/1.1/DTD/svg11.dtd">
<svg version="1.1" id="Layer_1" xmlns="http://www.w3.org/2000/svg" xmlns:xlink="http://www.w3.org/1999/xlink" x="0px" y="0px"
	 width="237.393px" height="225.404px" viewBox="0 0 237.393 225.404" enable-background="new 0 0 237.393 225.404"
	 xml:space="preserve">
<path fill="#244EC6" d="M73.945,66.739c-25.104,25.104-25.104,65.81,0,90.899l-30.812,30.816
	c-19.341-19.34-31.308-46.063-31.308-75.578C11.825,53.84,59.68,6.001,118.707,6.001c26.133,0,50.059,9.376,68.628,24.947
	C159.34,33.71,98.332,42.356,73.945,66.739L73.945,66.739z M118.718,219.761c-26.135,0-50.054-9.385-68.628-24.962
	c27.999-2.747,89-11.401,113.39-35.783c25.098-25.105,25.098-65.802,0-90.9L194.29,37.3c19.339,19.348,31.305,46.062,31.305,75.585
	C225.594,171.915,177.733,219.761,118.718,219.761L118.718,219.761z M118.718,137.712c-13.724,0-24.832-11.116-24.837-24.834
	c0.005-13.711,11.113-24.827,24.826-24.827c13.714,0,24.83,11.116,24.83,24.834C143.537,126.596,132.421,137.712,118.718,137.712
	L118.718,137.712z"/>
</svg>
